<?xml version="1.0" encoding="utf-8"?>
<!-- Uploaded to: SVG Repo, www.svgrepo.com, Generator: SVG Repo Mixer Tools -->
<svg width="800px" height="800px" viewBox="0 0 1024 1024" class="icon"  version="1.1" xmlns="http://www.w3.org/2000/svg"><path d="M506.9 782.1H129.2c-10.8 0-19.5-8-19.5-17.8V259.8c0-9.8 8.8-17.8 19.5-17.8h378.4l-0.7 540.1z" fill="#68A240" /><path d="M501.8 787.5H129.2c-13.7 0-24.9-10.4-24.9-23.2V259.8c0-12.8 11.2-23.2 24.9-23.2h372.6v10.8H129.2c-7.8 0-14.2 5.6-14.2 12.5v504.5c0 6.9 6.4 12.5 14.2 12.5h372.6v10.6z" fill="#333336" /><path d="M150.5 298.7h303V782h-303z" fill="#D5D9CF" /><path d="M458.8 787.5H145.1V293.4h313.8v494.1z m-303-10.8h292.3V304.1H155.8v472.6z" fill="#333336" /><path d="M506.1 782.1h388.7c10.8 0 19.5-8 19.5-17.8V259.8c0-9.8-8.8-17.8-19.5-17.8H506.1v540.1z" fill="#68A240" /><path d="M894.8 787.5H500.7v-551h394.1c13.7 0 24.9 10.4 24.9 23.2v504.5c0.1 12.8-11.1 23.3-24.9 23.3z m-383.3-10.8h383.3c7.8 0 14.2-5.6 14.2-12.5V259.8c0-6.9-6.4-12.5-14.2-12.5H511.5v529.4z" fill="#333336" /><path d="M109.6 347.1h136.5c31.4 0 60.5 15.1 76.5 39.8l93.8 144.3c4.1 6.2 6.2 13.4 6.2 20.6v230.3H128.4c-10.4 0-18.8-7.7-18.8-17.2V347.1z" fill="#FFD632" /><path d="M428.1 787.5H128.4c-13.3 0-24.2-10.1-24.2-22.5V341.7h141.9c33.1 0 64.1 16.2 81.1 42.2L421 528.2c4.6 7.1 7.1 15.3 7.1 23.6v235.7zM115 352.5V765c0 6.5 6 11.8 13.4 11.8h288.9v-225c0-6.2-1.8-12.3-5.3-17.7l-93.8-144.3c-15-23-42.6-37.3-72-37.3H115z" fill="#333336" /><path d="M109.6 606h313.1v10.8H109.6z" fill="#333336" /><path d="M368.3 736.9H266.4c-6.6 0-12-5.4-12-12v-52.1c0-6.6 5.4-12 12-12h101.9c6.6 0 12 5.4 12 12v52.1c0 6.6-5.4 12-12 12z" fill="#D5D9CF" /><path d="M368.5 742.3H266.1c-9.4 0-17.1-7.7-17.1-17.1v-52.6c0-9.4 7.7-17.1 17.1-17.1h102.4c9.4 0 17.1 7.7 17.1 17.1v52.6c0.1 9.4-7.6 17.1-17.1 17.1z m-102.4-76.1c-3.5 0-6.4 2.9-6.4 6.4v52.6c0 3.5 2.9 6.4 6.4 6.4h102.4c3.5 0 6.4-2.9 6.4-6.4v-52.6c0-3.5-2.9-6.4-6.4-6.4H266.1z" fill="#333336" /><path d="M560.7 316.4h310.7v403.5H560.7z" fill="#D5D9CF" /><path d="M876.8 725.2H555.4V311h321.4v414.2z m-310.7-10.7H866V321.8H566.1v392.7z" fill="#333336" /><path d="M792.4 353.1H645.5c-8.4 0-15.3-6.8-15.3-15.3v-37.9h177.4v37.9c0.1 8.5-6.8 15.3-15.2 15.3z" fill="#D8A128" /><path d="M792.7 358.5H645.2c-11.2 0-20.3-9.1-20.3-20.3v-43.7H813v43.7c0 11.2-9.1 20.3-20.3 20.3z m-157.1-53.2v32.9c0 5.3 4.3 9.6 9.6 9.6h147.6c5.3 0 9.6-4.3 9.6-9.6v-32.9H635.6z" fill="#333336" /><path d="M811.7 441H621.8c-3 0-5.4-2.4-5.4-5.4 0-3 2.4-5.4 5.4-5.4h189.8c3 0 5.4 2.4 5.4 5.4 0 3-2.4 5.4-5.3 5.4z" fill="#333336" /><path d="M811.7 509.7H621.8c-3 0-5.4-2.4-5.4-5.4 0-3 2.4-5.4 5.4-5.4h189.8c3 0 5.4 2.4 5.4 5.4 0 3-2.4 5.4-5.3 5.4z" fill="#333336" /><path d="M811.7 578.4H621.8c-3 0-5.4-2.4-5.4-5.4s2.4-5.4 5.4-5.4h189.8c3 0 5.4 2.4 5.4 5.4s-2.4 5.4-5.3 5.4z" fill="#333336" /><path d="M811.7 647.1H621.8c-3 0-5.4-2.4-5.4-5.4s2.4-5.4 5.4-5.4h189.8c3 0 5.4 2.4 5.4 5.4s-2.4 5.4-5.3 5.4z" fill="#333336" /></svg>