<?xml version="1.0" encoding="UTF-8"?>
<svg id="Layer_1" data-name="Layer 1" xmlns="http://www.w3.org/2000/svg" viewBox="0 0 400 400">
  <defs>
    <style>
      .cls-1 {
        fill: #0d322c;
      }

      .cls-2 {
        fill: #39ae6b;
      }

      .cls-3 {
        fill: #0c322c;
      }
    </style>
  </defs>
  <g>
    <rect class="cls-2" x="189.68" y="35.54" width="18.88" height="247.22"/>
    <path class="cls-2" d="M199.12,292.2c-45.32,0-80.82-58.44-80.82-133.05S153.8,26.1,199.12,26.1s80.83,58.44,80.83,133.05-35.5,133.05-80.83,133.05ZM199.12,44.98c-33.58,0-61.95,52.29-61.95,114.17s28.37,114.17,61.95,114.17,61.95-52.29,61.95-114.17-28.37-114.17-61.95-114.17Z"/>
    <rect class="cls-2" x="81.16" y="112.67" width="235.4" height="18.88"/>
    <rect class="cls-2" x="81.16" y="186.76" width="235.4" height="18.88"/>
    <path class="cls-1" d="M199.12,292.2c-73.36,0-133.04-59.68-133.04-133.05S125.76,26.1,199.12,26.1s133.05,59.68,133.05,133.05-59.69,133.05-133.05,133.05ZM199.12,44.98c-62.95,0-114.17,51.22-114.17,114.17s51.22,114.17,114.17,114.17,114.18-51.22,114.18-114.17-51.22-114.17-114.18-114.17Z"/>
  </g>
  <rect class="cls-3" x="35.02" y="112.75" width="18.88" height="110.77"/>
  <g>
    <path class="cls-3" d="M223.82,352.57v-18.88c67.51,0,122.44-54.93,122.44-122.44h18.88c0,77.92-63.39,141.32-141.32,141.32Z"/>
    <g>
      <rect class="cls-3" x="214.43" y="310.15" width="18.88" height="65.95"/>
      <rect class="cls-3" x="346.31" y="112.75" width="18.88" height="98.49"/>
    </g>
  </g>
</svg>