<?xml version="1.0" encoding="UTF-8" standalone="no"?>
<svg
   width="799.68237"
   height="775.92542"
   version="1.1"
   id="svg5"
   sodipodi:docname="k3k-logomark.svg"
   inkscape:version="1.4 (e7c3feb1, 2024-10-09)"
   xmlns:inkscape="http://www.inkscape.org/namespaces/inkscape"
   xmlns:sodipodi="http://sodipodi.sourceforge.net/DTD/sodipodi-0.dtd"
   xmlns="http://www.w3.org/2000/svg"
   xmlns:svg="http://www.w3.org/2000/svg">
  <defs
     id="defs5" />
  <sodipodi:namedview
     id="namedview5"
     pagecolor="#505050"
     bordercolor="#eeeeee"
     borderopacity="1"
     inkscape:showpageshadow="0"
     inkscape:pageopacity="0"
     inkscape:pagecheckerboard="0"
     inkscape:deskcolor="#505050"
     inkscape:zoom="0.78235311"
     inkscape:cx="400.7142"
     inkscape:cy="645.48858"
     inkscape:window-width="2328"
     inkscape:window-height="1353"
     inkscape:window-x="0"
     inkscape:window-y="25"
     inkscape:window-maximized="0"
     inkscape:current-layer="svg5" />
  <path
     d="m 397.06848,0.06840654 a 53.162,52.727 0 0 0 -20.374,5.15499996 L 98.686481,138.05941 a 53.162,52.727 0 0 0 -28.764,35.769 l -68.5869996,298.382 a 53.162,52.727 0 0 0 7.218,40.426 53.162,52.727 0 0 0 3.0219996,4.196 l 192.426999,239.253 a 53.162,52.727 0 0 0 41.564,19.84 l 308.587,-0.07 a 53.162,52.727 0 0 0 41.565,-19.805 l 192.355,-239.29 a 53.162,52.727 0 0 0 10.276,-44.621 l -68.694,-298.382 a 53.162,52.727 0 0 0 -28.764,-35.77 L 422.84648,5.2234065 a 53.162,52.727 0 0 0 -25.777,-5.15499996 z"
     style="fill:#2453ff;fill-opacity:1;stroke:#ffffff;stroke-width:0;stroke-miterlimit:4;stroke-dasharray:none;stroke-opacity:1"
     id="path1" />
  <path
     d="m 397.47748,57.310407 a 45.316,44.945 0 0 0 -17.367,4.395 l -236.983,113.233003 a 45.316,44.945 0 0 0 -24.52,30.49 l -58.463999,254.349 a 45.316,44.945 0 0 0 6.152,34.46 45.316,44.945 0 0 0 2.577,3.578 l 164.029999,203.945 a 45.316,44.945 0 0 0 35.43,16.912 l 263.048,-0.06 a 45.316,44.945 0 0 0 35.43,-16.883 l 163.968,-203.974 a 45.316,44.945 0 0 0 8.76,-38.038 l -58.556,-254.348 a 45.316,44.945 0 0 0 -24.52,-30.49 L 419.45048,61.706407 a 45.316,44.945 0 0 0 -21.974,-4.395 z"
     style="fill:#ffffff;fill-opacity:1;stroke:#ffffff;stroke-width:0;stroke-miterlimit:4;stroke-dasharray:none;stroke-opacity:1"
     id="path2" />
  <path
     d="m 397.83148,106.91141 a 38.519,38.204 0 0 0 -14.762,3.735 l -201.433,96.247 a 38.519,38.204 0 0 0 -20.84,25.916 l -49.696,216.196 a 38.519,38.204 0 0 0 5.23,29.29 38.519,38.204 0 0 0 2.189,3.041 l 139.425,173.352 a 38.519,38.204 0 0 0 30.115,14.376 l 223.589,-0.053 a 38.519,38.204 0 0 0 30.115,-14.35 l 139.373,-173.377 a 38.519,38.204 0 0 0 7.446,-32.332 l -49.773,-216.194 a 38.519,38.204 0 0 0 -20.841,-25.917 l -201.46,-96.196 a 38.519,38.204 0 0 0 -18.677,-3.736 z"
     style="fill:#2453ff;fill-opacity:1;stroke:#ffffff;stroke-width:0;stroke-miterlimit:4;stroke-dasharray:none;stroke-opacity:1"
     id="path3" />
  <path
     d="m 295.70448,382.03141 c -1.62,0.082 -3.208,0.485 -4.67,1.187 l -63.742,30.591 a 12.15,12.15 0 0 0 -6.595,8.237 l -15.726,68.716 a 12.1,12.1 0 0 0 1.655,9.309 q 0.322,0.5 0.693,0.967 l 44.12,55.099 a 12.2,12.2 0 0 0 9.53,4.568 l 70.751,-0.017 c 3.708,0 7.215,-1.676 9.53,-4.56 l 44.103,-55.107 a 12.1,12.1 0 0 0 2.355,-10.276 l -15.749,-68.716 a 12.15,12.15 0 0 0 -6.595,-8.237 l -63.75,-30.575 a 12.2,12.2 0 0 0 -5.91,-1.187 z m 207,0 c -1.62,0.082 -3.208,0.485 -4.67,1.187 l -63.742,30.591 a 12.15,12.15 0 0 0 -6.595,8.237 l -15.726,68.716 a 12.1,12.1 0 0 0 1.655,9.309 q 0.323,0.5 0.693,0.967 l 44.12,55.099 a 12.2,12.2 0 0 0 9.53,4.568 l 70.751,-0.017 c 3.708,0 7.215,-1.676 9.53,-4.56 l 44.103,-55.107 a 12.1,12.1 0 0 0 2.355,-10.276 l -15.749,-68.716 a 12.15,12.15 0 0 0 -6.595,-8.237 l -63.75,-30.575 a 12.2,12.2 0 0 0 -5.91,-1.187 z m -103.5,-207 c -1.62,0.082 -3.208,0.485 -4.67,1.187 l -63.742,30.591 a 12.15,12.15 0 0 0 -6.595,8.237 l -15.726,68.716 a 12.1,12.1 0 0 0 1.655,9.309 q 0.322,0.5 0.693,0.967 l 44.12,55.099 a 12.2,12.2 0 0 0 9.53,4.568 l 70.751,-0.017 c 3.708,0 7.215,-1.676 9.53,-4.56 l 44.103,-55.107 a 12.1,12.1 0 0 0 2.355,-10.276 l -15.749,-68.716 a 12.15,12.15 0 0 0 -6.595,-8.237 l -63.75,-30.575 a 12.2,12.2 0 0 0 -5.91,-1.187 z"
     style="fill:#ffffff;fill-opacity:1;stroke:#ffffff;stroke-width:0;stroke-miterlimit:4;stroke-dasharray:none;stroke-opacity:1"
     id="path4" />
</svg>
